<?xml version="1.0" encoding="UTF-8"?>
<svg id="Layer_1" data-name="Layer 1" xmlns="http://www.w3.org/2000/svg" version="1.1" viewBox="0 0 316 64">
  <defs>
    <style>
      .cls-1 {
        fill: #fff;
        stroke-width: 0px;
      }
    </style>
  </defs>
  <path class="cls-1" d="M8,61.4V2.6h10.6l25.1,34.7c.3.3.6.8,1,1.4.4.6.8,1.2,1.1,1.8.3.6.6,1,.7,1.4h.4V2.6h10.7v58.9h-10.6L22,26.4c-.5-.7-1-1.5-1.6-2.5-.6-1-1-1.7-1.2-2.1h-.4v39.6h-10.7Z"/>
  <path class="cls-1" d="M97.8,62.5c-6.1,0-11.4-1.1-15.9-3.3s-7.9-5.6-10.3-10.1c-2.4-4.5-3.6-10.2-3.6-17.1s1.2-12.6,3.6-17.1,5.8-7.8,10.3-10c4.5-2.2,9.7-3.3,15.9-3.3s11.5,1.1,15.9,3.3c4.4,2.2,7.8,5.6,10.2,10,2.4,4.5,3.6,10.2,3.6,17.1s-1.2,12.6-3.6,17.1c-2.4,4.5-5.8,7.9-10.2,10.1s-9.7,3.3-15.9,3.3ZM97.8,53c3,0,5.6-.4,7.9-1.3,2.3-.9,4.2-2.1,5.7-3.8,1.5-1.7,2.7-3.8,3.5-6.3.8-2.5,1.2-5.4,1.2-8.6v-1.9c0-3.3-.4-6.2-1.2-8.8-.8-2.5-2-4.6-3.5-6.3-1.5-1.7-3.4-3-5.7-3.8-2.3-.9-4.9-1.3-7.9-1.3s-5.6.4-7.8,1.3c-2.3.9-4.2,2.1-5.7,3.8-1.5,1.7-2.7,3.8-3.5,6.3s-1.2,5.4-1.2,8.8v1.9c0,3.3.4,6.1,1.2,8.6.8,2.5,1.9,4.6,3.5,6.3,1.5,1.7,3.4,3,5.7,3.8,2.3.9,4.9,1.3,7.8,1.3Z"/>
  <path class="cls-1" d="M152.4,61.4L130.9,2.6h12.1l14,40.5c.2.6.5,1.2.7,2,.2.7.5,1.4.7,2.1.2.7.4,1.2.6,1.8h.4c.2-.5.4-1,.6-1.6.2-.6.4-1.3.6-2,.2-.7.5-1.4.7-2.1l13.9-40.6h11.6l-21.4,58.9h-13Z"/>
  <path class="cls-1" d="M185.1,61.4L208,2.6h14.1l23,58.9h-12.1l-4.7-12.5h-26.9l-4.7,12.5h-11.5ZM204.8,39.5h19.8l-5.9-16c-.2-.6-.5-1.3-.8-2.2s-.6-1.9-1-2.9c-.3-1.1-.7-2.1-1-3.2-.3-1.1-.7-2.1-.9-2.9h-.4c-.3,1.1-.8,2.5-1.2,3.9-.5,1.5-1,2.9-1.4,4.2-.5,1.3-.8,2.3-1.1,3.1l-5.9,16Z"/>
  <path class="cls-1" d="M287.5,62.5c-4.5,0-8.3-.7-11.5-2.2s-5.5-3.5-7.2-6.2-2.4-5.8-2.4-9.3v-1.3h10.6v1.5c0,2.9.9,5,2.7,6.6,1.8,1.5,4.3,2.3,7.5,2.3s5.5-.7,7.3-2.1c1.8-1.4,2.7-3.7,2.7-6.9s-.5-4.3-1.5-5.6-2.3-2.2-3.9-2.7c-1.6-.5-3.4-.8-5.3-.8h-4.9v-8.6h5.1c1.7,0,3.3-.3,4.7-.9,1.4-.6,2.5-1.6,3.3-2.9.8-1.3,1.2-3,1.2-5s-.4-3.5-1.1-4.7c-.7-1.2-1.8-2.1-3.1-2.7-1.3-.6-2.8-.9-4.5-.9s-3.3.3-4.7.9-2.4,1.5-3.2,2.7c-.7,1.2-1.1,2.8-1.1,4.7v1.4h-10.6v-2.1c0-3.3.8-6.1,2.5-8.5,1.7-2.4,4-4.3,6.9-5.6s6.3-2,10.1-2,7.3.6,10.3,1.8c2.9,1.2,5.2,3,6.9,5.4s2.5,5.3,2.5,8.8-.4,4.3-1.2,6c-.8,1.7-2,3.1-3.4,4.2-1.4,1.1-3,2.1-4.8,3v.3c3,.9,5.6,2.6,7.6,5s3,5.5,3,9.4-.9,6.5-2.6,9c-1.7,2.5-4.2,4.5-7.3,5.8-3.1,1.3-6.6,2-10.6,2Z"/>
</svg>